<svg width="29" height="38" viewBox="0 0 29 38" fill="none" xmlns="http://www.w3.org/2000/svg">
<path d="M14.5018 0C17.8273 0 21.9722 1.05484 24.0356 3.8849L29 5.34403V22.6736C29 25.941 27.5366 28.7747 24.877 30.6565L14.5018 38L4.12662 30.6565C1.46698 28.7784 0 25.9447 0 22.6772V5.34771L4.96807 3.88858C7.03139 1.05117 11.1727 0 14.5018 0ZM14.4982 2.01779C11.619 2.01779 7.99723 2.69407 6.31437 5.30361L1.91699 6.64513H1.92431V22.9492C1.92431 25.7021 3.09496 28.0911 5.32292 29.712L14.5018 36.3718L23.677 29.712C25.9013 28.0948 27.0757 25.6984 27.0757 22.9492V6.64513L22.682 5.30361C20.9955 2.69407 17.3737 2.01779 14.4982 2.01779ZM14.5603 6.06809C18.0797 6.00193 21.1235 7.93887 22.8758 10.9821L21.7308 11.6437C20.2491 9.05619 17.5346 7.46474 14.5823 7.39491C10.902 7.46842 7.83256 10.1221 6.91797 13.6909C6.38019 15.7932 6.61069 18.1087 7.7265 20.1412C8.98498 22.4273 11.1946 23.9894 13.7372 24.3238V21.2365C11.0666 20.902 9.03985 18.6159 9.03985 15.8924C9.03985 12.9484 11.4141 10.5117 14.403 10.5043C17.3956 10.5153 19.7662 12.9484 19.7662 15.8924C19.7662 18.6159 17.7358 20.902 15.0652 21.2365V24.3642C17.8419 24.1474 20.3369 22.5633 21.7308 20.1412L22.8722 20.8065C21.2296 23.6623 18.3943 25.5955 15.0652 25.7131V29.1533H15.8079V28.0029H17.6115V31.6379H15.8079V30.4875H15.0652V32.5053H13.7372V25.6984C10.5105 25.4779 7.5765 23.6696 5.93389 20.8065C4.58028 18.4579 4.30954 15.7748 4.95342 13.3491C6.11678 8.99371 10.0825 5.99091 14.5603 6.06809ZM22.8758 20.8138C22.8758 20.8138 22.8758 20.8138 22.8758 20.8101V20.8138ZM14.403 11.8348C12.2775 11.8532 11.0081 13.9702 11.0081 15.8961C11.0044 17.7081 12.1348 19.7002 14.0555 19.9317H14.7506C16.6639 19.7002 17.798 17.7118 17.798 15.8961C17.8017 13.9776 16.5322 11.8532 14.403 11.8348Z" fill="#DFE0EC"/>
</svg>
