<svg xmlns="http://www.w3.org/2000/svg" width="434" height="116" fill="none" viewBox="0 0 434 116"><path fill="#dfe0ec" d="M407.57 22.86h25.86c-.1.5-.18 1.02-.27 1.57-.04.54-.07.99-.07 1.36 0 .31.04.79.14 1.43.09.64.16 1.13.2 1.5-2.3-.31-4.71-.55-7.2-.68-2.44-.18-5.27-.27-8.48-.27v14.59h7.07c1.76 0 3.11-.03 4.06-.07 1-.1 2.43-.27 4.28-.54-.1.5-.18 1.02-.27 1.57-.05.54-.07.99-.07 1.36 0 .31.04.79.13 1.43.1.64.17 1.13.21 1.5-1.09-.14-2.45-.27-4.07-.41-1.58-.14-3.01-.2-4.27-.2h-7.07v17.24c3.21 0 6.04-.07 8.48-.2 2.49-.18 4.89-.44 7.2-.75-.1.5-.18 1.02-.27 1.57-.04.54-.07.99-.07 1.36 0 .31.04.79.14 1.43.09.64.16 1.13.2 1.5h-25.86zm-50.77 0h23.22c6.79 0 12.01 2.24 15.67 6.72 3.21 3.93 4.82 8.95 4.82 15.06 0 7.51-2.38 13.5-7.13 17.99-4.53 4.3-10.38 6.45-17.58 6.45h-19zm10.18 3.94v38.35h5.77c5.16 0 9.08-1.43 11.74-4.27 3.17-3.39 4.75-8.82 4.75-16.29 0-6.15-1.4-10.7-4.2-13.64-2.63-2.76-6.43-4.14-11.41-4.14h-6.65zm-17.25 19c0 6.87-2.38 12.63-7.13 17.24-4.98 4.84-11.51 7.27-19.61 7.27-7.65 0-13.76-2.12-18.33-6.38-4.52-4.26-6.79-10.21-6.79-17.86 0-7.01 2.33-12.78 7-17.31 4.88-4.75 11.47-7.13 19.74-7.13 8.78 0 15.38 2.71 19.82 8.14 3.52 4.34 5.29 9.68 5.29 16.02h.01zM324.2 25.71c-4.84 0-8.53 1.81-11.06 5.43-2.67 3.8-4 9.43-4 16.9 0 4.98 1.09 9.12 3.25 12.43 2.53 3.85 6.18 5.77 10.93 5.77s8.75-2.19 11.47-6.59c2.44-3.99 3.66-9.02 3.66-15.13 0-5.02-1.09-9.25-3.25-12.7-2.59-4.07-6.25-6.11-11-6.11m-41.98 1.96v41.74c-.78 0-1.4-.03-1.9-.07-1.95-.18-3.19-.27-3.19-.27-.77 0-1.77.04-2.98.14-1.22.14-1.92.2-2.11.2V27.67c-2.39 0-4.5.09-6.31.27-1.77.14-3.8.37-6.25.68.1-.64.16-1.17.2-1.63.1-.49.14-.93.14-1.29 0-.64-.04-1.17-.14-1.63-.09-.5-.16-.91-.2-1.22h34.76c-.1.64-.18 1.2-.27 1.7-.05.45-.07.83-.07 1.16 0 .68.04 1.27.13 1.77.1.45.17.84.21 1.16-3.31-.41-5.17-.64-5.85-.68-2.05-.18-4.1-.27-6.18-.27h.01zm-32.76 3.95h-1.11c-.75-1.85-1.84-3.31-3.28-4.34s-3.21-1.57-5.29-1.57c-2.79 0-4.86.61-6.19 1.84-1.35 1.17-2.01 2.78-2.01 4.82 0 2.45 1.95 4.64 5.82 6.59 7.06 3.52 10.72 5.39 10.97 5.57 3.93 2.8 5.89 6.42 5.89 10.86s-1.84 7.92-5.53 10.72-8.44 4.21-14.26 4.21c-2.19 0-4.33-.24-6.42-.75-2.04-.45-3.91-1.17-5.59-2.18.6-1.9 1.05-3.44 1.35-4.61s.57-2.52.82-4h1.42c.54 2.36 1.74 4.19 3.58 5.5s4.08 1.97 6.72 1.97c2.49 0 4.56-.61 6.19-1.84 1.69-1.22 2.55-2.97 2.55-5.23 0-2.9-1.92-5.29-5.74-7.2-3.58-1.71-7.14-3.44-10.67-5.16-3.88-2.67-5.82-6.32-5.82-10.93 0-4.12 1.44-7.47 4.33-10.04 3.13-2.8 7.44-4.21 12.92-4.21q3.735 0 7.02 1.02c2.25.68 3.84 1.43 4.78 2.25-.54 1.31-.97 2.39-1.26 3.25-.5 1.54-.87 2.69-1.12 3.46zm-74.25 18.93v-27.7c.78 0 1.77.07 2.98.2 1.22.1 1.92.14 2.11.14.78 0 1.4-.03 1.91-.07q2.925-.27 3.18-.27v27.42c.04 1.67.23 3.38.54 5.09.31 1.67.68 3.05 1.09 4.14.45 1.04 1.27 2.12 2.45 3.25 2.08 1.95 4.65 2.91 7.74 2.91s5.73-.61 7.54-1.84 3.32-3.35 4.55-6.38c.54-1.31.88-3.17 1.02-5.57s.2-5.23.2-8.48V22.83l2.71.2 2.71-.2v24.16c0 4.98-.31 8.61-.95 10.93-.99 3.66-3.08 6.59-6.25 8.75-1.72 1.27-3.69 2.18-5.91 2.71-2.22.59-4.52.88-6.93.88-4.71 0-8.68-.79-11.95-2.38-3.93-1.95-6.49-4.95-7.68-9.02-.37-1.23-.64-2.56-.82-4-.18-1.5-.27-2.94-.27-4.34v.03zm-6.82 10.59.88.41-1.5 5.84c-1.95.99-4.07 1.71-6.38 2.18-2.31.5-4.66.75-7.06.75-7.42 0-13.49-2.06-18.2-6.18-4.89-4.25-7.33-9.81-7.33-16.7 0-8.46 2.64-14.97 7.93-19.54 4.85-4.16 11.2-6.25 19.07-6.25 2.4 0 4.79.3 7.2.89 2.45.54 4.65 1.36 6.65 2.45-.23.9-.5 2.01-.82 3.32q-.405 1.905-.75 3.66h-.95a14.34 14.34 0 0 0-4.95-4.48c-2.04-1.18-4.14-1.77-6.32-1.77-5.25 0-9.3 2.22-12.15 6.65-2.45 3.8-3.66 8.51-3.66 14.11 0 5.98 1.4 10.77 4.2 14.39 2.8 3.58 6.79 5.36 11.95 5.36 2.12 0 4.27-.45 6.45-1.36 2.22-.95 4.12-2.19 5.7-3.73zm126.65 34.2h-4.45l-.76 2.16H288l3.8-10.64h2.01l3.81 10.64h-1.83l-.76-2.16zm-.48-1.43-1.73-4.94-1.74 4.94zm-9.21 3.59h-1.74l-5.24-7.93v7.93h-1.74V86.86h1.74l5.24 7.92v-7.92h1.74zm-13.99-2.16h-4.45l-.76 2.16h-1.83l3.81-10.64h2.02l3.81 10.64h-1.84zm-.49-1.43-1.73-4.94-1.74 4.94zm-9.21-7.02v10.62h-1.75V86.89zm-7.8 9.21h3.59v1.4h-5.33V86.88h1.74zm-7-.76h-4.45l-.76 2.16h-1.82l3.81-10.64h2.01l3.81 10.64h-1.84zm-.49-1.43-1.73-4.94-1.74 4.94zm-8.69-7.02v1.42h-2.83v9.2h-1.74v-9.2h-2.84v-1.42h7.42zm-10.16 0v10.62h-1.74V86.89zm-12.49 8.45h-4.45l-.76 2.16H208l3.8-10.64h2.01l3.8 10.64h-1.84l-.76-2.16h.03zm-.49-1.43-1.73-4.94-1.74 4.94zm-13.77 2.08h4.94v1.51h-6.99v-1.36l4.93-7.74h-4.93v-1.51h6.99v1.36zm-9.53 0h4.94v1.51h-6.99v-1.36l4.93-7.74h-4.93v-1.51h6.99v1.36zm-8.97-7.7v3.12h3.66v1.42h-3.66v3.25h4.12v1.42h-5.86V86.86h5.86v1.42h-4.12v.03zm-6.88 9.21-2.45-4.25h-1.33v4.25h-1.74V86.88h3.66c.82 0 1.5.14 2.07.43s.99.67 1.27 1.14c.29.48.42 1.01.42 1.61 0 .69-.2 1.32-.61 1.89-.4.56-1.01.94-1.85 1.14l2.63 4.4h-2.08.03zm-3.77-5.63h1.92c.65 0 1.14-.16 1.47-.49.34-.33.5-.76.5-1.32s-.16-.98-.49-1.28c-.33-.31-.82-.48-1.48-.48h-1.92zm-11.58-4.98v6.76c0 .8.2 1.42.63 1.82.42.41 1.02.61 1.77.61s1.36-.2 1.77-.61c.42-.41.64-1.01.64-1.82v-6.76h1.74v6.74c0 .87-.19 1.61-.57 2.2-.38.6-.88 1.05-1.51 1.35q-.945.45-2.1.45c-.77 0-1.46-.15-2.1-.45a3.4 3.4 0 0 1-1.48-1.35c-.37-.6-.54-1.33-.54-2.2v-6.74h1.76zm-15.14 5.29c0-1.03.24-1.97.72-2.79.49-.83 1.14-1.47 1.97-1.93s1.74-.71 2.74-.71c1.13 0 2.14.29 3.01.84.89.55 1.52 1.33 1.92 2.36h-2.1c-.27-.56-.65-.98-1.14-1.25s-1.05-.41-1.7-.41c-.71 0-1.33.16-1.88.48-.54.31-.98.76-1.29 1.36-.3.59-.46 1.28-.46 2.05s.15 1.47.46 2.07c.31.58.75 1.05 1.29 1.37.54.31 1.17.48 1.88.48.64 0 1.21-.14 1.7-.41s.87-.69 1.14-1.25h2.1c-.4 1.02-1.03 1.8-1.92 2.36-.87.54-1.88.83-3.01.83-.99 0-1.91-.23-2.74-.69s-1.48-1.12-1.97-1.95q-.72-1.245-.72-2.79zm-2.7-5.29v10.62h-1.74V86.89zm-8.48 10.72c-.71 0-1.36-.12-1.92-.37-.57-.26-1.02-.61-1.35-1.08-.33-.46-.49-.99-.49-1.61h1.86c.04.46.22.83.53 1.13.33.3.78.45 1.36.45s1.08-.14 1.4-.44c.34-.3.5-.67.5-1.13 0-.35-.11-.65-.33-.87-.2-.22-.46-.39-.78-.52-.3-.12-.74-.26-1.28-.39-.69-.19-1.25-.37-1.7-.54-.42-.19-.79-.49-1.1-.89-.3-.39-.46-.92-.46-1.59 0-.61.15-1.14.46-1.61.3-.46.73-.82 1.28-1.05.54-.25 1.18-.37 1.91-.37 1.03 0 1.86.26 2.52.77.67.5 1.03 1.21 1.1 2.11h-1.92c-.03-.39-.22-.72-.54-.99-.34-.27-.78-.41-1.33-.41-.5 0-.91.12-1.23.38-.31.26-.48.63-.48 1.1 0 .33.09.6.29.82.2.2.46.37.76.49s.72.26 1.25.4c.71.19 1.28.38 1.71.58.45.19.83.49 1.13.9.31.39.48.92.48 1.61 0 .54-.15 1.05-.45 1.52-.28.48-.71.87-1.26 1.16s-1.2.42-1.96.42h.03zM44.31.01c10.17 0 22.82 3.21 29.12 11.81l15.17 4.44v52.69c0 9.93-4.48 18.55-12.6 24.28l-31.7 22.33-31.7-22.33C4.48 87.51 0 78.9 0 68.96V16.27l15.17-4.44C21.47 3.2 34.13 0 44.29 0zm-.02 6.13c-8.79 0-19.86 2.05-25 9.99L5.86 20.21h.03v49.58c0 8.37 3.58 15.64 10.38 20.56L44.3 110.6l28.04-20.25c6.79-4.91 10.38-12.21 10.38-20.56V20.21l-13.43-4.08c-5.14-7.93-16.21-9.99-25-9.99m.19 12.32c10.75-.21 20.06 5.69 25.41 14.94l-3.5 2.01c-4.53-7.87-12.82-12.71-21.84-12.92-11.24.22-20.62 8.29-23.41 19.15-1.65 6.4-.94 13.43 2.46 19.61 3.85 6.95 10.6 11.7 18.37 12.72v-9.39c-8.16-1.02-14.36-7.97-14.36-16.26 0-8.95 7.25-16.36 16.39-16.39 9.15.03 16.39 7.43 16.39 16.39 0 8.28-6.2 15.23-14.36 16.26v9.51c8.47-.66 16.1-5.48 20.36-12.84l3.49 2.02c-5.02 8.68-13.68 14.56-23.85 14.91v10.46h2.26v-3.5h5.51v11.05h-5.51v-3.5h-2.26v6.14h-4.06v-20.7a29.81 29.81 0 0 1-23.84-14.87c-4.14-7.15-4.97-15.3-2.99-22.67 3.55-13.24 15.66-22.37 29.34-22.14zm-.47 17.53c-6.49.05-10.37 6.49-10.37 12.34-.01 5.51 3.45 11.57 9.31 12.27h2.11c5.85-.7 9.31-6.75 9.31-12.27.01-5.84-3.86-12.29-10.37-12.34z"/></svg>