<svg width="180" height="43" viewBox="0 0 180 43" fill="none" xmlns="http://www.w3.org/2000/svg">
<path d="M168.932 11.5953H180C179.958 11.8116 179.925 12.032 179.884 12.2649C179.867 12.4978 179.855 12.6891 179.855 12.8472C179.855 12.9803 179.871 13.1841 179.913 13.4586C179.954 13.733 179.983 13.941 180 14.099C179.016 13.966 177.986 13.8661 176.918 13.8079C175.876 13.733 174.663 13.6915 173.289 13.6915V19.9466H176.312C177.072 19.9466 177.645 19.9341 178.056 19.9175C178.48 19.8759 179.091 19.801 179.884 19.6846C179.842 19.9009 179.809 20.1213 179.767 20.3542C179.751 20.5871 179.738 20.7784 179.738 20.9365C179.738 21.0695 179.755 21.2733 179.797 21.5478C179.838 21.8223 179.867 22.0303 179.884 22.1883C179.419 22.1301 178.837 22.0719 178.144 22.0136C177.467 21.9554 176.856 21.9263 176.312 21.9263H173.289V29.3169C174.663 29.3169 175.876 29.2877 176.918 29.2295C177.986 29.1546 179.012 29.0424 180 28.9093C179.958 29.1255 179.925 29.346 179.884 29.5789C179.867 29.8118 179.855 30.0031 179.855 30.1611C179.855 30.2942 179.871 30.498 179.913 30.7725C179.954 31.047 179.983 31.2549 180 31.413H168.932V11.587V11.5953Z" fill="white"/>
<path d="M147.204 11.5953H157.142C160.045 11.5953 162.283 12.556 163.849 14.4775C165.224 16.1619 165.913 18.3163 165.913 20.9365C165.913 24.1555 164.891 26.7216 162.86 28.6473C160.921 30.4897 158.417 31.413 155.335 31.413H147.204V11.5953ZM151.56 13.288V29.7244H154.031C156.236 29.7244 157.914 29.1131 159.056 27.8945C160.414 26.443 161.087 24.1139 161.087 20.9115C161.087 18.2747 160.489 16.3283 159.289 15.0681C158.163 13.8828 156.54 13.2964 154.409 13.2964H151.56V13.288Z" fill="white"/>
<path d="M144.18 21.4231C144.18 24.3676 143.159 26.8381 141.128 28.8136C138.993 30.889 136.198 31.9287 132.735 31.9287C129.458 31.9287 126.846 31.0179 124.885 29.1921C122.954 27.3663 121.978 24.8168 121.978 21.5395C121.978 18.5367 122.975 16.0621 124.973 14.1198C127.066 12.0861 129.886 11.063 133.428 11.063C137.182 11.063 140.006 12.2233 141.909 14.5524C143.416 16.4114 144.172 18.6989 144.172 21.4189H144.18V21.4231ZM133.25 12.8139C131.177 12.8139 129.599 13.5875 128.515 15.143C127.373 16.7691 126.804 19.1855 126.804 22.3879C126.804 24.5215 127.269 26.2974 128.195 27.7115C129.279 29.3626 130.841 30.1861 132.872 30.1861C134.902 30.1861 136.618 29.2462 137.785 27.3621C138.827 25.6528 139.35 23.4942 139.35 20.8741C139.35 18.7197 138.885 16.9064 137.959 15.4299C136.85 13.6873 135.285 12.8098 133.25 12.8098V12.8139Z" fill="white"/>
<path d="M115.279 13.6582V31.5502C114.947 31.5502 114.681 31.5378 114.465 31.5211C113.631 31.4463 113.103 31.4047 113.103 31.4047C112.771 31.4047 112.343 31.4213 111.828 31.4629C111.301 31.5211 111.006 31.5502 110.923 31.5502V13.6582C109.897 13.6582 108.996 13.6998 108.219 13.7746C107.463 13.8329 106.595 13.9327 105.549 14.0658C105.586 13.7913 105.615 13.5625 105.636 13.3671C105.678 13.1549 105.694 12.9719 105.694 12.8139C105.694 12.5394 105.678 12.3107 105.636 12.1152C105.595 11.8989 105.565 11.7242 105.549 11.5912H120.425C120.383 11.8657 120.35 12.1027 120.309 12.319C120.292 12.5103 120.28 12.6767 120.28 12.8139C120.28 13.105 120.296 13.3546 120.338 13.5708C120.379 13.7622 120.408 13.9327 120.425 14.0658C119.009 13.8911 118.211 13.7913 117.921 13.7746C117.044 13.6998 116.168 13.6582 115.275 13.6582H115.279Z" fill="white"/>
<path d="M100.781 15.3551C100.461 14.5607 99.9963 13.9368 99.3775 13.496C98.7628 13.051 98.0029 12.8264 97.1141 12.8264C95.918 12.8264 95.0334 13.0884 94.4603 13.6124C93.8872 14.1157 93.6007 14.8019 93.6007 15.6753C93.6007 16.7234 94.4313 17.6633 96.0925 18.4993C99.1159 20.009 100.682 20.8075 100.79 20.8865C102.471 22.0885 103.31 23.6398 103.31 25.5405C103.31 27.4411 102.525 28.9342 100.943 30.1362C99.365 31.3381 97.3342 31.937 94.8424 31.937C93.9038 31.937 92.9902 31.8331 92.0931 31.6168C91.2169 31.4255 90.4195 31.1135 89.6968 30.6852C89.9543 29.87 90.1454 29.2087 90.2741 28.7096C90.4029 28.2064 90.5191 27.6283 90.6229 26.9961H91.2293C91.4618 28.0068 91.9768 28.7928 92.7618 29.3543C93.5467 29.9158 94.5102 30.1986 95.6398 30.1986C96.7029 30.1986 97.5917 29.9365 98.2894 29.4125C99.012 28.8885 99.3775 28.1399 99.3775 27.1708C99.3775 25.9273 98.5552 24.9 96.9189 24.0848C95.3865 23.3487 93.8623 22.6084 92.3548 21.8722C90.6936 20.7285 89.8588 19.1647 89.8588 17.1892C89.8588 15.4216 90.4776 13.9867 91.711 12.8846C93.0525 11.6827 94.9006 11.0838 97.2387 11.0838C98.3061 11.0838 99.3069 11.2293 100.246 11.5205C101.209 11.8116 101.89 12.1318 102.289 12.4812C102.056 13.0427 101.878 13.5085 101.749 13.8745C101.533 14.5316 101.375 15.0307 101.271 15.3551H100.781Z" fill="white"/>
<path d="M69.4799 23.461V11.5912C69.8122 11.5912 70.2358 11.6203 70.7549 11.6785C71.2782 11.7201 71.5772 11.7367 71.6603 11.7367C71.9925 11.7367 72.2583 11.7242 72.4743 11.7076C73.309 11.6327 73.7617 11.5912 73.8364 11.5912V23.3445C73.8531 24.064 73.9361 24.7919 74.069 25.5238C74.2061 26.2433 74.3597 26.8298 74.5342 27.2956C74.7294 27.7406 75.0782 28.2064 75.5849 28.6888C76.4736 29.5248 77.5783 29.9365 78.899 29.9365C80.2197 29.9365 81.3493 29.6745 82.1259 29.1505C82.9025 28.6265 83.5462 27.7156 84.0695 26.4139C84.3062 25.8524 84.4516 25.0539 84.5097 24.0266C84.5679 22.9993 84.5969 21.7849 84.5969 20.3916V11.5787L85.7556 11.666L86.9143 11.5787V21.9305C86.9143 24.064 86.7814 25.6237 86.5073 26.6135C86.0795 28.1814 85.1908 29.4375 83.8328 30.3649C83.0977 30.9056 82.2546 31.2965 81.3036 31.5253C80.3567 31.7748 79.3724 31.9038 78.3383 31.9038C76.3241 31.9038 74.6214 31.5669 73.226 30.8848C71.544 30.0488 70.4476 28.7595 69.9409 27.0169C69.7831 26.4929 69.6668 25.9189 69.5921 25.3034C69.5132 24.6629 69.4758 24.0432 69.4758 23.4443V23.4568L69.4799 23.461Z" fill="white"/>
<path d="M66.5604 28.0109L66.9383 28.1856L66.2988 30.6893C65.464 31.1135 64.5586 31.4255 63.566 31.6209C62.5776 31.8372 61.5767 31.9412 60.5426 31.9412C57.3697 31.9412 54.7699 31.0595 52.7557 29.2919C50.6668 27.4703 49.6161 25.0871 49.6161 22.1342C49.6161 18.5076 50.7457 15.7169 53.0132 13.758C55.0856 11.9738 57.8058 11.0796 61.1739 11.0796C62.1997 11.0796 63.2214 11.2085 64.2555 11.4581C65.302 11.691 66.2447 12.0403 67.1044 12.5061C67.0047 12.8888 66.8885 13.3671 66.7514 13.9285C66.6351 14.4692 66.5313 14.9974 66.4316 15.4965H66.0246C65.4847 14.7021 64.7787 14.0616 63.9066 13.575C63.0303 13.0676 62.1333 12.8181 61.203 12.8181C58.9521 12.8181 57.2244 13.7705 55.9993 15.6711C54.9527 17.2973 54.4336 19.3186 54.4336 21.7225C54.4336 24.2845 55.0316 26.3348 56.2318 27.8862C57.432 29.4208 59.1389 30.1861 61.3483 30.1861C62.2579 30.1861 63.1757 29.9948 64.1101 29.6038C65.057 29.1962 65.8751 28.6639 66.5479 28.0068H66.5604V28.0109Z" fill="white"/>
<path d="M16.4626 0C20.2377 0 24.943 1.19363 27.2853 4.39607L32.921 6.0472V25.6569C32.921 29.3543 31.2598 32.5609 28.2405 34.6903L16.4626 43L4.68456 34.6903C1.66532 32.565 0 29.3584 0 25.6611V6.05136L5.63978 4.40023C7.98208 1.18948 12.6833 0 16.4626 0ZM16.4584 2.28329C13.19 2.28329 9.0785 3.04855 7.16811 6.00145L2.17618 7.51949H2.18449V25.9689C2.18449 29.084 3.51342 31.7873 6.04261 33.6214L16.4626 41.1576L26.8783 33.6214C29.4033 31.7915 30.7365 29.0798 30.7365 25.9689V7.51949L25.7487 6.00145C23.8342 3.04855 19.7227 2.28329 16.4584 2.28329ZM16.529 6.86652C20.5242 6.79166 23.9795 8.98346 25.9688 12.4271L24.6689 13.1757C22.9869 10.2478 19.9054 8.44695 16.5539 8.36792C12.376 8.45111 8.89157 11.4539 7.85332 15.4923C7.24282 17.8713 7.5045 20.4914 8.77117 22.7914C10.1998 25.3783 12.7082 27.1459 15.5945 27.5243V24.0308C12.5628 23.6523 10.2621 21.0654 10.2621 17.9836C10.2621 14.6522 12.9574 11.8948 16.3504 11.8864C19.7476 11.8989 22.4387 14.6522 22.4387 17.9836C22.4387 21.0654 20.1338 23.6523 17.1021 24.0308V27.5701C20.2542 27.3247 23.0866 25.5322 24.6689 22.7914L25.9647 23.5442C24.1 26.7757 20.8813 28.9633 17.1021 29.0964V32.9893H17.9452V31.6875H19.9926V35.8008H17.9452V34.499H17.1021V36.7823H15.5945V29.0798C11.9316 28.8303 8.60088 26.784 6.73618 23.5442C5.19956 20.8865 4.89222 17.8505 5.62315 15.1055C6.94381 10.1771 11.4457 6.77918 16.529 6.86652ZM25.9688 23.5525C25.9688 23.5525 25.9688 23.5525 25.9688 23.5483V23.5525ZM16.3504 13.392C13.9375 13.4128 12.4964 15.8084 12.4964 17.9877C12.4923 20.0381 13.7755 22.2923 15.9559 22.5543H16.7449C18.917 22.2923 20.2044 20.0423 20.2044 17.9877C20.2085 15.8167 18.7675 13.4128 16.3504 13.392Z" fill="white"/>
</svg>
