<?xml version="1.0" encoding="UTF-8"?>
<svg version="1.1" xmlns="http://www.w3.org/2000/svg" width="1920" height="1280">
<path d="M0 0 C633.6 0 1267.2 0 1920 0 C1920 422.4 1920 844.8 1920 1280 C1286.4 1280 652.8 1280 0 1280 C0 857.6 0 435.2 0 0 Z " fill="#FFFFFF" transform="translate(0,0)"/>
<path d="M0 0 C211.2 0 422.4 0 640 0 C640 422.4 640 844.8 640 1280 C428.8 1280 217.6 1280 0 1280 C0 857.6 0 435.2 0 0 Z " fill="#CE2B37" transform="translate(1280,0)"/>
<path d="M0 0 C211.2 0 422.4 0 640 0 C640 422.4 640 844.8 640 1280 C428.8 1280 217.6 1280 0 1280 C0 857.6 0 435.2 0 0 Z " fill="#009246" transform="translate(0,0)"/>
</svg>
