<svg width="24" height="18" viewBox="0 0 24 18" fill="none" xmlns="http://www.w3.org/2000/svg">
<g clip-path="url(#clip0_74_217)">
<mask id="mask0_74_217" style="mask-type:alpha" maskUnits="userSpaceOnUse" x="0" y="0" width="24" height="18">
<path d="M21.7143 0H2.28571C1.02335 0 0 1.07452 0 2.4V15.6C0 16.9255 1.02335 18 2.28571 18H21.7143C22.9767 18 24 16.9255 24 15.6V2.4C24 1.07452 22.9767 0 21.7143 0Z" fill="white"/>
</mask>
<g mask="url(#mask0_74_217)">
<path d="M21.7143 0H2.28571C1.02335 0 0 1.07452 0 2.4V15.6C0 16.9255 1.02335 18 2.28571 18H21.7143C22.9767 18 24 16.9255 24 15.6V2.4C24 1.07452 22.9767 0 21.7143 0Z" fill="#D4112A"/>
<path fill-rule="evenodd" clip-rule="evenodd" d="M0.00012207 13.2H24.0001V18H0.00012207V13.2Z" fill="#20BD42"/>
<path fill-rule="evenodd" clip-rule="evenodd" d="M0 0H24V4.8H0V0Z" fill="#02A3BD"/>
<path fill-rule="evenodd" clip-rule="evenodd" d="M0.00012207 5.99995H24.0001V12H0.00012207V5.99995ZM5.71441 4.69795C5.53612 4.76395 5.34298 4.79995 5.14298 4.79995C4.19669 4.79995 3.42869 3.99355 3.42869 2.99995C3.42869 2.00635 4.19669 1.19995 5.14298 1.19995C5.34298 1.19995 5.53612 1.23595 5.71441 1.30195C5.04812 1.54915 4.57155 2.21635 4.57155 2.99995C4.57155 3.78355 5.04812 4.45195 5.71441 4.69795Z" fill="white"/>
<path fill-rule="evenodd" clip-rule="evenodd" d="M6.85718 2.39995H8.00003V3.59995H6.85718V2.39995ZM8.00003 1.19995H9.14289V2.39995H8.00003V1.19995ZM9.14289 2.39995H10.2857V3.59995H9.14289V2.39995ZM10.2857 1.19995H11.4286V2.39995H10.2857V1.19995ZM11.4286 2.39995H12.5715V3.59995H11.4286V2.39995ZM10.2857 3.59995H11.4286V4.79995H10.2857V3.59995ZM8.00003 3.59995H9.14289V4.79995H8.00003V3.59995Z" fill="#78CDDB"/>
<path d="M21.7144 0.600098H2.28582C1.33904 0.600098 0.571533 1.40599 0.571533 2.4001V15.6001C0.571533 16.5942 1.33904 17.4001 2.28582 17.4001H21.7144C22.6612 17.4001 23.4287 16.5942 23.4287 15.6001V2.4001C23.4287 1.40599 22.6612 0.600098 21.7144 0.600098Z" stroke="black" stroke-opacity="0.1" stroke-width="1.2"/>
</g>
</g>
<defs>
<clipPath id="clip0_74_217">
<rect width="24" height="18" fill="white"/>
</clipPath>
</defs>
</svg>
